<svg version="1.1" id="Layer_1" xmlns="http://www.w3.org/2000/svg" xmlns:xlink="http://www.w3.org/1999/xlink" x="0px" y="0px"
	 width="100%" viewBox="0 0 1165 477" enable-background="new 0 0 1165 477" xml:space="preserve">
<path fill="#222222" opacity="1.000000" stroke="none" 
	d="
M891.000000,478.000000 
	C594.000061,478.000000 297.500061,478.000000 1.000080,478.000000 
	C1.000053,319.000061 1.000053,160.000107 1.000026,1.000122 
	C389.333252,1.000082 777.666504,1.000082 1165.999756,1.000041 
	C1165.999878,159.999878 1165.999878,318.999756 1166.000000,477.999817 
	C1074.500000,478.000000 983.000000,478.000000 891.000000,478.000000 
M299.508209,434.022095 
	C578.240234,434.022095 856.972290,434.022095 1135.540039,434.022095 
	C1135.540039,317.690460 1135.540039,202.133759 1135.540039,86.095963 
	C1120.957520,86.095963 1106.717041,86.095963 1092.081177,86.095963 
	C1092.081177,71.533295 1092.081177,57.447071 1092.081177,43.219097 
	C737.509583,43.219097 383.345123,43.219097 29.229794,43.219097 
	C29.229794,159.033661 29.229794,274.560059 29.229794,390.555786 
	C43.638351,390.555786 57.705605,390.555786 72.239479,390.555786 
	C72.239479,405.263245 72.239479,419.507416 72.239479,434.022095 
	C147.983948,434.022095 223.248596,434.022095 299.508209,434.022095 
z"/>
<path fill="#EAEAEA" opacity="1.000000" stroke="none" 
	d="
M299.010742,434.022095 
	C223.248596,434.022095 147.983948,434.022095 72.239479,434.022095 
	C72.239479,419.507416 72.239479,405.263245 72.239479,390.555786 
	C57.705605,390.555786 43.638351,390.555786 29.229794,390.555786 
	C29.229794,274.560059 29.229794,159.033661 29.229794,43.219097 
	C383.345123,43.219097 737.509583,43.219097 1092.081177,43.219097 
	C1092.081177,57.447071 1092.081177,71.533295 1092.081177,86.095963 
	C1106.717041,86.095963 1120.957520,86.095963 1135.540039,86.095963 
	C1135.540039,202.133759 1135.540039,317.690460 1135.540039,434.022095 
	C856.972290,434.022095 578.240234,434.022095 299.010742,434.022095 
M171.500427,91.397469 
	C140.228806,91.397469 108.957176,91.397469 77.474579,91.397469 
	C77.474579,189.609756 77.474579,287.183868 77.474579,385.027344 
	C414.036133,385.027344 750.381653,385.027344 1086.729980,385.027344 
	C1086.729980,287.022705 1086.729980,189.315323 1086.729980,91.397415 
	C781.750366,91.397415 477.125397,91.397415 171.500427,91.397469 
M410.500000,428.931702 
	C650.427368,428.931702 890.354736,428.931702 1130.455811,428.931702 
	C1130.455811,316.202606 1130.455811,203.973297 1130.455811,91.744247 
	C1117.612427,91.744247 1105.044067,91.744247 1092.115234,91.744247 
	C1092.115234,191.374817 1092.115234,290.651794 1092.115234,390.532471 
	C753.722656,390.532471 415.695404,390.532471 77.473190,390.532471 
	C77.473190,403.565338 77.473190,415.993439 77.473190,428.931702 
	C188.292892,428.931702 298.896454,428.931702 410.500000,428.931702 
M1003.499878,86.247772 
	C1031.255981,86.247772 1059.011963,86.247772 1086.842529,86.247772 
	C1086.842529,73.208862 1086.842529,60.793243 1086.842529,48.332851 
	C735.759644,48.332851 384.916901,48.332851 34.189415,48.332851 
	C34.189415,160.777115 34.189415,272.871674 34.189415,385.060181 
	C46.867615,385.060181 59.272202,385.060181 72.189392,385.060181 
	C72.189392,285.415466 72.189392,186.030151 72.189392,86.247780 
	C382.636017,86.247780 692.567871,86.247780 1003.499878,86.247772 
z"/>
<path fill="#232323" opacity="1.000000" stroke="none" 
	d="
M172.000443,91.397446 
	C477.125397,91.397415 781.750366,91.397415 1086.729980,91.397415 
	C1086.729980,189.315323 1086.729980,287.022705 1086.729980,385.027344 
	C750.381653,385.027344 414.036133,385.027344 77.474579,385.027344 
	C77.474579,287.183868 77.474579,189.609756 77.474579,91.397469 
	C108.957176,91.397469 140.228806,91.397469 172.000443,91.397446 
M606.523438,185.124680 
	C602.749573,178.876831 597.007690,174.631332 590.034729,174.271301 
	C576.144592,173.554184 562.191406,174.058945 548.090027,174.058945 
	C548.090027,205.505829 548.090027,237.190643 548.090027,269.177216 
	C557.202393,269.177216 566.003479,269.310883 574.798218,269.132202 
	C581.095886,269.004272 587.517517,269.143738 593.651123,267.959015 
	C607.419495,265.299713 615.167542,255.230576 615.061340,241.356049 
	C614.972229,229.714539 607.501038,221.985550 593.562012,219.096817 
	C592.439209,218.864136 591.333618,218.548187 589.350403,218.054398 
	C608.303772,210.310776 613.843323,199.622574 606.523438,185.124680 
M756.638855,204.816513 
	C747.197021,195.094055 724.393188,198.994492 716.510315,210.346481 
	C707.345032,223.545120 706.825256,237.482239 712.067444,252.134293 
	C719.184570,272.026855 749.812439,279.197449 762.211670,258.526855 
	C762.211670,262.668121 762.211670,265.845428 762.211670,268.849518 
	C766.397949,268.849518 769.988098,268.849518 773.619385,268.849518 
	C773.619385,236.941818 773.619385,205.366608 773.619385,173.713928 
	C769.641724,173.713928 765.951538,173.713928 761.734192,173.713928 
	C761.734192,186.419571 761.734192,198.707504 761.734192,211.720795 
	C760.644287,209.946259 760.091064,208.915512 759.411743,207.975937 
	C758.731140,207.034637 757.924683,206.184402 756.638855,204.816513 
M990.986328,200.141754 
	C979.448120,197.767059 969.373779,200.229019 960.703186,210.531754 
	C960.703186,197.276642 960.703186,185.403244 960.703186,173.666672 
	C956.569275,173.666672 952.990417,173.666672 949.419006,173.666672 
	C949.419006,205.626617 949.419006,237.214554 949.419006,268.960144 
	C953.298523,268.960144 956.891724,268.960144 960.956909,268.960144 
	C960.956909,267.127380 960.955933,265.505707 960.957031,263.884033 
	C960.964844,251.886612 960.696472,239.879333 961.123413,227.896835 
	C961.284485,223.376785 962.391968,218.616898 964.241882,214.492920 
	C967.236450,207.817230 974.602295,205.192184 983.029297,206.779251 
	C989.339539,207.967682 992.725891,211.553345 993.074890,219.699188 
	C993.701843,234.334015 993.604187,248.999939 993.802002,263.652954 
	C993.825806,265.412933 993.805176,267.173523 993.805176,268.920654 
	C997.890381,268.920654 1001.311035,268.920654 1004.957214,268.920654 
	C1004.957214,251.708694 1005.416443,234.733536 1004.757202,217.801926 
	C1004.443054,209.735199 999.730957,203.483536 990.986328,200.141754 
M176.568146,227.976913 
	C170.838425,241.504807 165.108719,255.032700 159.360458,268.604401 
	C163.860809,270.082489 165.922150,268.775940 167.373703,264.833923 
	C170.008514,257.678497 173.161224,250.702713 176.382965,243.784775 
	C176.965637,242.533615 178.904373,241.145203 180.233658,241.128326 
	C195.040207,240.940384 209.850052,241.009796 224.835037,241.009796 
	C228.742264,249.348694 232.554337,257.635742 236.541000,265.837952 
	C237.174942,267.142212 238.502197,268.881622 239.667099,269.012573 
	C243.327011,269.423920 247.062378,269.163940 251.338058,269.163940 
	C236.592896,237.521439 222.273026,206.681824 207.731415,175.947128 
	C207.082458,174.575516 204.344406,173.367874 202.712891,173.519531 
	C201.109924,173.668533 198.951050,175.333496 198.281265,176.874420 
	C191.005234,193.613907 183.974365,210.459930 176.568146,227.976913 
M909.947632,234.545410 
	C907.888550,232.024780 905.829529,229.504135 903.261963,226.360992 
	C912.015442,217.690659 920.377075,209.408493 928.691650,201.172958 
	C924.029968,199.636169 920.420593,200.987640 916.906189,204.725510 
	C908.347595,213.828522 899.388245,222.555222 890.566345,231.409592 
	C889.720520,232.258499 888.706543,232.939819 886.995972,234.327164 
	C886.995972,213.436646 886.995972,193.548569 886.995972,173.510773 
	C883.074158,173.510773 879.640686,173.510773 875.973816,173.510773 
	C875.973816,205.436508 875.973816,237.152679 875.973816,268.817627 
	C879.863586,268.817627 883.429749,268.817627 887.194580,268.817627 
	C887.194580,262.812347 887.767517,257.086090 887.053833,251.524963 
	C886.097656,244.074890 889.852539,239.757111 895.484070,235.850479 
	C903.855103,246.050751 912.158142,256.226898 920.557068,266.323273 
	C921.532593,267.495941 922.981506,268.923767 924.310181,269.033630 
	C928.525024,269.382233 932.786865,269.162598 938.124023,269.162598 
	C928.378174,257.193115 919.383972,246.146774 909.947632,234.545410 
M424.011810,200.254242 
	C421.036469,199.913544 418.066132,199.337692 415.084900,199.274200 
	C404.111694,199.040512 393.937256,200.937668 387.061127,210.429901 
	C389.288971,212.805328 391.397430,215.053482 393.517456,217.313919 
	C403.483276,205.039169 413.067596,201.225449 421.779938,205.963821 
	C427.769714,209.221451 431.215302,222.604874 428.471222,230.372116 
	C424.447662,228.349930 420.541138,225.669205 416.219055,224.353607 
	C404.855865,220.894821 393.288635,224.958359 386.966766,233.983475 
	C381.474609,241.824097 381.464020,253.667267 386.942444,261.204376 
	C393.239441,269.867645 404.314148,273.251648 416.069763,269.573517 
	C420.551331,268.171295 424.697754,265.697845 429.034424,263.695251 
	C429.135864,265.306335 429.246735,267.066986 429.363861,268.927246 
	C433.159271,268.927246 436.579041,268.927246 439.899384,268.927246 
	C439.899384,252.046249 440.305756,235.407425 439.740173,218.801682 
	C439.423584,209.506439 434.210815,202.977097 424.011810,200.254242 
M645.959656,254.068756 
	C645.565247,250.621170 644.862183,247.176422 644.830566,243.725494 
	C644.701050,229.607239 644.776550,215.487106 644.776550,201.027191 
	C640.621643,201.027191 636.908936,201.027191 632.993286,201.027191 
	C632.993286,215.049469 632.990906,229.011688 632.996338,242.973907 
	C632.997009,244.638870 632.923218,246.315445 633.087097,247.966431 
	C633.445190,251.572388 632.778503,255.922882 634.559143,258.639374 
	C645.259949,274.963287 663.929382,273.865692 673.649536,264.768677 
	C675.040222,263.467163 676.541992,262.284302 678.756897,260.393982 
	C678.756897,263.873413 678.756897,266.277740 678.756897,268.925110 
	C682.743286,268.925110 686.341187,268.925110 690.390625,268.925110 
	C690.390625,246.233658 690.390625,223.675064 690.390625,201.061035 
	C686.456421,201.061035 682.856689,201.061035 678.823975,201.061035 
	C678.823975,213.738800 678.894958,226.185516 678.781372,238.630569 
	C678.746643,242.441498 678.569214,246.320953 677.820312,250.040833 
	C676.319519,257.495972 670.577209,262.524536 663.023376,263.603271 
	C655.574646,264.666992 650.208740,261.872986 645.959656,254.068756 
M519.896118,226.587387 
	C519.759644,218.693878 519.513123,210.777344 512.980286,204.998291 
	C504.531281,197.524277 489.746735,197.222809 480.564301,204.209061 
	C478.539368,205.749680 476.598083,207.400314 473.811890,209.651962 
	C473.811890,206.023468 473.811890,203.482208 473.811890,201.194763 
	C469.734528,201.194763 466.164062,201.194763 462.576782,201.194763 
	C462.576782,223.979111 462.576782,246.383514 462.576782,268.961884 
	C466.449127,268.961884 470.033997,268.961884 474.048126,268.961884 
	C474.048126,267.132629 474.048035,265.502319 474.048157,263.872009 
	C474.048889,251.883499 473.814880,239.887878 474.177612,227.910324 
	C474.304596,223.717224 475.218384,219.253662 476.968933,215.466492 
	C480.408844,208.024414 488.739227,204.853577 497.307556,206.853333 
	C503.836273,208.377060 507.729797,214.000488 507.998993,222.397858 
	C508.089630,225.225906 508.057251,228.058334 508.058411,230.888763 
	C508.063660,243.500015 508.060730,256.111267 508.060730,268.819763 
	C512.228699,268.819763 515.924744,268.819763 519.896667,268.819763 
	C519.896667,254.826660 519.896667,241.195953 519.896118,226.587387 
M817.898315,263.010345 
	C814.997192,260.442841 811.160767,258.373505 809.454224,255.169693 
	C807.698730,251.873840 807.571594,247.477859 807.514465,243.551910 
	C807.308960,229.423950 807.433777,215.291183 807.433777,201.201111 
	C803.425659,201.201111 799.725037,201.201111 795.868591,201.201111 
	C795.868591,215.566055 795.863953,229.545685 795.874146,243.525330 
	C795.875488,245.356522 795.790771,247.209335 796.032959,249.013626 
	C796.384521,251.634460 796.674377,254.335144 797.552063,256.801971 
	C802.569031,270.901459 821.631775,275.886414 834.289062,266.470734 
	C836.511963,264.817169 838.582520,262.958954 841.183960,260.815887 
	C841.451294,263.926819 841.667297,266.440552 841.870056,268.800201 
	C845.842957,268.800201 849.403748,268.800201 852.870972,268.800201 
	C852.870972,246.016998 852.870972,223.602676 852.870972,201.128906 
	C849.039307,201.128906 845.478699,201.128906 841.552734,201.128906 
	C841.552734,203.399216 841.563721,205.375580 841.550903,207.351776 
	C841.468933,220.004150 841.834473,232.680206 841.173523,245.302414 
	C840.460632,258.917297 832.147339,265.132965 817.898315,263.010345 
M344.561371,274.140045 
	C354.439667,249.895706 364.317963,225.651382 374.215179,201.360687 
	C369.646637,199.902557 367.284882,201.014023 365.671631,205.494156 
	C362.357117,214.698563 358.350372,223.654114 354.612854,232.705597 
	C351.849731,239.397293 349.061768,246.078720 345.920837,253.641388 
	C344.975220,251.626419 344.431793,250.501999 343.916321,249.364914 
	C337.130768,234.396286 330.293976,219.450394 323.619354,204.432434 
	C322.466736,201.838898 321.182373,200.407440 318.118164,200.757980 
	C315.508118,201.056580 312.836823,200.819672 309.437683,200.819672 
	C310.349213,202.841705 311.007965,204.309784 311.672150,205.775406 
	C320.579315,225.430756 329.508545,245.076202 338.354309,264.759155 
	C339.056122,266.320770 339.951385,268.429230 339.442535,269.793365 
	C337.009735,276.315887 334.401642,282.807251 331.311035,289.039490 
	C328.805756,294.091339 323.427094,294.686981 319.203796,290.855042 
	C318.362762,290.091949 317.809296,289.011932 316.819611,287.664734 
	C314.559204,291.882477 312.720245,295.313843 310.921539,298.670074 
	C319.522003,306.230865 329.346313,305.153381 334.746582,295.642242 
	C338.495087,289.040253 341.095154,281.786194 344.561371,274.140045 
M278.115875,267.363373 
	C278.120331,254.540359 277.983124,241.714783 278.214111,228.895844 
	C278.284882,224.968369 278.764435,220.840546 280.095337,217.182297 
	C284.151398,206.033325 294.790619,204.114716 301.310455,212.369568 
	C301.420532,212.508926 301.861481,212.386993 302.365784,212.386993 
	C302.962006,211.328613 303.456635,210.061127 304.277740,209.061905 
	C307.434021,205.220963 305.821747,202.980682 302.011627,201.011032 
	C294.426086,197.089706 285.801910,199.546982 281.335327,207.100418 
	C280.566376,208.400818 279.809875,209.708588 279.047638,211.012939 
	C278.701050,210.893433 278.354492,210.773926 278.007935,210.654419 
	C278.007935,207.447144 278.007935,204.239868 278.007935,201.157471 
	C273.921234,201.157471 270.358582,201.157471 266.711212,201.157471 
	C266.711212,223.928177 266.711212,246.350464 266.711212,269.520721 
	C270.693542,269.104065 274.363068,268.720123 278.115875,267.363373 
z"/>
<path fill="#252525" opacity="1.000000" stroke="none" 
	d="
M410.000000,428.931702 
	C298.896454,428.931702 188.292892,428.931702 77.473190,428.931702 
	C77.473190,415.993439 77.473190,403.565338 77.473190,390.532471 
	C415.695404,390.532471 753.722656,390.532471 1092.115234,390.532471 
	C1092.115234,290.651794 1092.115234,191.374817 1092.115234,91.744247 
	C1105.044067,91.744247 1117.612427,91.744247 1130.455811,91.744247 
	C1130.455811,203.973297 1130.455811,316.202606 1130.455811,428.931702 
	C890.354736,428.931702 650.427368,428.931702 410.000000,428.931702 
z"/>
<path fill="#222222" opacity="1.000000" stroke="none" 
	d="
M1002.999817,86.247772 
	C692.567871,86.247780 382.636017,86.247780 72.189392,86.247780 
	C72.189392,186.030151 72.189392,285.415466 72.189392,385.060181 
	C59.272202,385.060181 46.867615,385.060181 34.189415,385.060181 
	C34.189415,272.871674 34.189415,160.777115 34.189415,48.332851 
	C384.916901,48.332851 735.759644,48.332851 1086.842529,48.332851 
	C1086.842529,60.793243 1086.842529,73.208862 1086.842529,86.247772 
	C1059.011963,86.247772 1031.255981,86.247772 1002.999817,86.247772 
z"/>
<path fill="#EEEEEE" opacity="1.000000" stroke="none" 
	d="
M606.712646,185.448273 
	C613.843323,199.622574 608.303772,210.310776 589.350403,218.054398 
	C591.333618,218.548187 592.439209,218.864136 593.562012,219.096817 
	C607.501038,221.985550 614.972229,229.714539 615.061340,241.356049 
	C615.167542,255.230576 607.419495,265.299713 593.651123,267.959015 
	C587.517517,269.143738 581.095886,269.004272 574.798218,269.132202 
	C566.003479,269.310883 557.202393,269.177216 548.090027,269.177216 
	C548.090027,237.190643 548.090027,205.505829 548.090027,174.058945 
	C562.191406,174.058945 576.144592,173.554184 590.034729,174.271301 
	C597.007690,174.631332 602.749573,178.876831 606.712646,185.448273 
M561.918823,221.193008 
	C561.321472,222.161011 560.294434,223.092651 560.208923,224.103973 
	C559.971252,226.912018 560.124756,229.753189 560.124695,232.581284 
	C560.124390,242.670609 560.124512,252.759949 560.124512,262.979980 
	C568.529053,262.979980 576.361450,263.453674 584.112854,262.863617 
	C594.494751,262.073303 601.746582,253.173370 601.437073,242.649475 
	C601.110718,231.556671 593.929565,223.523666 582.257996,222.053223 
	C575.853577,221.246384 569.323730,221.434418 561.918823,221.193008 
M580.733398,214.766052 
	C583.203491,213.823654 585.909607,213.253876 588.098511,211.867554 
	C594.167603,208.023880 597.437988,202.428528 596.730835,195.090454 
	C596.048584,188.009888 592.503296,182.263000 585.448792,180.890427 
	C577.292236,179.303436 568.828125,179.297134 560.345459,178.591888 
	C560.345459,191.474396 560.345459,203.057053 560.345459,214.897949 
	C566.995728,214.897949 573.429260,214.897949 580.733398,214.766052 
z"/>
<path fill="#EDEDED" opacity="1.000000" stroke="none" 
	d="
M756.906128,205.055389 
	C757.924683,206.184402 758.731140,207.034637 759.411743,207.975937 
	C760.091064,208.915512 760.644287,209.946259 761.734192,211.720795 
	C761.734192,198.707504 761.734192,186.419571 761.734192,173.713928 
	C765.951538,173.713928 769.641724,173.713928 773.619385,173.713928 
	C773.619385,205.366608 773.619385,236.941818 773.619385,268.849518 
	C769.988098,268.849518 766.397949,268.849518 762.211670,268.849518 
	C762.211670,265.845428 762.211670,262.668121 762.211670,258.526855 
	C749.812439,279.197449 719.184570,272.026855 712.067444,252.134293 
	C706.825256,237.482239 707.345032,223.545120 716.510315,210.346481 
	C724.393188,198.994492 747.197021,195.094055 756.906128,205.055389 
M758.832642,254.153976 
	C763.859131,244.066895 762.830078,233.374283 761.055725,222.950699 
	C759.281067,212.525497 752.317078,206.656296 743.395386,206.263275 
	C734.144348,205.855759 726.626160,211.399002 723.707703,221.425385 
	C720.859497,231.210480 720.903381,241.096558 724.502197,250.752914 
	C727.210449,258.019806 732.327820,262.733002 740.191833,263.546875 
	C747.909851,264.345612 754.162048,261.478668 758.832642,254.153976 
z"/>
<path fill="#EEEEEE" opacity="1.000000" stroke="none" 
	d="
M991.353760,200.293610 
	C999.730957,203.483536 1004.443054,209.735199 1004.757202,217.801926 
	C1005.416443,234.733536 1004.957214,251.708694 1004.957214,268.920654 
	C1001.311035,268.920654 997.890381,268.920654 993.805176,268.920654 
	C993.805176,267.173523 993.825806,265.412933 993.802002,263.652954 
	C993.604187,248.999939 993.701843,234.334015 993.074890,219.699188 
	C992.725891,211.553345 989.339539,207.967682 983.029297,206.779251 
	C974.602295,205.192184 967.236450,207.817230 964.241882,214.492920 
	C962.391968,218.616898 961.284485,223.376785 961.123413,227.896835 
	C960.696472,239.879333 960.964844,251.886612 960.957031,263.884033 
	C960.955933,265.505707 960.956909,267.127380 960.956909,268.960144 
	C956.891724,268.960144 953.298523,268.960144 949.419006,268.960144 
	C949.419006,237.214554 949.419006,205.626617 949.419006,173.666672 
	C952.990417,173.666672 956.569275,173.666672 960.703186,173.666672 
	C960.703186,185.403244 960.703186,197.276642 960.703186,210.531754 
	C969.373779,200.229019 979.448120,197.767059 991.353760,200.293610 
z"/>
<path fill="#EEEEEE" opacity="1.000000" stroke="none" 
	d="
M176.722412,227.626923 
	C183.974365,210.459930 191.005234,193.613907 198.281265,176.874420 
	C198.951050,175.333496 201.109924,173.668533 202.712891,173.519531 
	C204.344406,173.367874 207.082458,174.575516 207.731415,175.947128 
	C222.273026,206.681824 236.592896,237.521439 251.338058,269.163940 
	C247.062378,269.163940 243.327011,269.423920 239.667099,269.012573 
	C238.502197,268.881622 237.174942,267.142212 236.541000,265.837952 
	C232.554337,257.635742 228.742264,249.348694 224.835037,241.009796 
	C209.850052,241.009796 195.040207,240.940384 180.233658,241.128326 
	C178.904373,241.145203 176.965637,242.533615 176.382965,243.784775 
	C173.161224,250.702713 170.008514,257.678497 167.373703,264.833923 
	C165.922150,268.775940 163.860809,270.082489 159.360458,268.604401 
	C165.108719,255.032700 170.838425,241.504807 176.722412,227.626923 
M199.500549,234.834778 
	C206.723236,234.834778 213.945923,234.834778 222.002197,234.834778 
	C214.601273,218.940063 207.624832,203.957031 200.143646,187.889954 
	C193.273254,203.979965 186.814682,219.105560 180.098358,234.834778 
	C186.887909,234.834778 192.694626,234.834778 199.500549,234.834778 
z"/>
<path fill="#F0F0F0" opacity="1.000000" stroke="none" 
	d="
M910.168701,234.822922 
	C919.383972,246.146774 928.378174,257.193115 938.124023,269.162598 
	C932.786865,269.162598 928.525024,269.382233 924.310181,269.033630 
	C922.981506,268.923767 921.532593,267.495941 920.557068,266.323273 
	C912.158142,256.226898 903.855103,246.050751 895.484070,235.850479 
	C889.852539,239.757111 886.097656,244.074890 887.053833,251.524963 
	C887.767517,257.086090 887.194580,262.812347 887.194580,268.817627 
	C883.429749,268.817627 879.863586,268.817627 875.973816,268.817627 
	C875.973816,237.152679 875.973816,205.436508 875.973816,173.510773 
	C879.640686,173.510773 883.074158,173.510773 886.995972,173.510773 
	C886.995972,193.548569 886.995972,213.436646 886.995972,234.327164 
	C888.706543,232.939819 889.720520,232.258499 890.566345,231.409592 
	C899.388245,222.555222 908.347595,213.828522 916.906189,204.725510 
	C920.420593,200.987640 924.029968,199.636169 928.691650,201.172958 
	C920.377075,209.408493 912.015442,217.690659 903.261963,226.360992 
	C905.829529,229.504135 907.888550,232.024780 910.168701,234.822922 
z"/>
<path fill="#EDEDED" opacity="1.000000" stroke="none" 
	d="
M424.402649,200.373154 
	C434.210815,202.977097 439.423584,209.506439 439.740173,218.801682 
	C440.305756,235.407425 439.899384,252.046249 439.899384,268.927246 
	C436.579041,268.927246 433.159271,268.927246 429.363861,268.927246 
	C429.246735,267.066986 429.135864,265.306335 429.034424,263.695251 
	C424.697754,265.697845 420.551331,268.171295 416.069763,269.573517 
	C404.314148,273.251648 393.239441,269.867645 386.942444,261.204376 
	C381.464020,253.667267 381.474609,241.824097 386.966766,233.983475 
	C393.288635,224.958359 404.855865,220.894821 416.219055,224.353607 
	C420.541138,225.669205 424.447662,228.349930 428.471222,230.372116 
	C431.215302,222.604874 427.769714,209.221451 421.779938,205.963821 
	C413.067596,201.225449 403.483276,205.039169 393.517456,217.313919 
	C391.397430,215.053482 389.288971,212.805328 387.061127,210.429901 
	C393.937256,200.937668 404.111694,199.040512 415.084900,199.274200 
	C418.066132,199.337692 421.036469,199.913544 424.402649,200.373154 
M418.653442,263.562500 
	C430.771271,256.556580 430.813538,250.676666 428.369415,240.877914 
	C426.008545,231.413025 415.192200,226.916168 406.349945,230.171005 
	C396.894135,233.651672 391.866119,244.736816 395.867432,254.357880 
	C399.517609,263.134613 408.676971,267.876190 418.653442,263.562500 
z"/>
<path fill="#EFEFEF" opacity="1.000000" stroke="none" 
	d="
M646.073608,254.452866 
	C650.208740,261.872986 655.574646,264.666992 663.023376,263.603271 
	C670.577209,262.524536 676.319519,257.495972 677.820312,250.040833 
	C678.569214,246.320953 678.746643,242.441498 678.781372,238.630569 
	C678.894958,226.185516 678.823975,213.738800 678.823975,201.061035 
	C682.856689,201.061035 686.456421,201.061035 690.390625,201.061035 
	C690.390625,223.675064 690.390625,246.233658 690.390625,268.925110 
	C686.341187,268.925110 682.743286,268.925110 678.756897,268.925110 
	C678.756897,266.277740 678.756897,263.873413 678.756897,260.393982 
	C676.541992,262.284302 675.040222,263.467163 673.649536,264.768677 
	C663.929382,273.865692 645.259949,274.963287 634.559143,258.639374 
	C632.778503,255.922882 633.445190,251.572388 633.087097,247.966431 
	C632.923218,246.315445 632.997009,244.638870 632.996338,242.973907 
	C632.990906,229.011688 632.993286,215.049469 632.993286,201.027191 
	C636.908936,201.027191 640.621643,201.027191 644.776550,201.027191 
	C644.776550,215.487106 644.701050,229.607239 644.830566,243.725494 
	C644.862183,247.176422 645.565247,250.621170 646.073608,254.452866 
z"/>
<path fill="#ECECEC" opacity="1.000000" stroke="none" 
	d="
M519.896362,227.076309 
	C519.896667,241.195953 519.896667,254.826660 519.896667,268.819763 
	C515.924744,268.819763 512.228699,268.819763 508.060730,268.819763 
	C508.060730,256.111267 508.063660,243.500015 508.058411,230.888763 
	C508.057251,228.058334 508.089630,225.225906 507.998993,222.397858 
	C507.729797,214.000488 503.836273,208.377060 497.307556,206.853333 
	C488.739227,204.853577 480.408844,208.024414 476.968933,215.466492 
	C475.218384,219.253662 474.304596,223.717224 474.177612,227.910324 
	C473.814880,239.887878 474.048889,251.883499 474.048157,263.872009 
	C474.048035,265.502319 474.048126,267.132629 474.048126,268.961884 
	C470.033997,268.961884 466.449127,268.961884 462.576782,268.961884 
	C462.576782,246.383514 462.576782,223.979111 462.576782,201.194763 
	C466.164062,201.194763 469.734528,201.194763 473.811890,201.194763 
	C473.811890,203.482208 473.811890,206.023468 473.811890,209.651962 
	C476.598083,207.400314 478.539368,205.749680 480.564301,204.209061 
	C489.746735,197.222809 504.531281,197.524277 512.980286,204.998291 
	C519.513123,210.777344 519.759644,218.693878 519.896362,227.076309 
z"/>
<path fill="#F1F1F1" opacity="1.000000" stroke="none" 
	d="
M818.289673,263.095093 
	C832.147339,265.132965 840.460632,258.917297 841.173523,245.302414 
	C841.834473,232.680206 841.468933,220.004150 841.550903,207.351776 
	C841.563721,205.375580 841.552734,203.399216 841.552734,201.128906 
	C845.478699,201.128906 849.039307,201.128906 852.870972,201.128906 
	C852.870972,223.602676 852.870972,246.016998 852.870972,268.800201 
	C849.403748,268.800201 845.842957,268.800201 841.870056,268.800201 
	C841.667297,266.440552 841.451294,263.926819 841.183960,260.815887 
	C838.582520,262.958954 836.511963,264.817169 834.289062,266.470734 
	C821.631775,275.886414 802.569031,270.901459 797.552063,256.801971 
	C796.674377,254.335144 796.384521,251.634460 796.032959,249.013626 
	C795.790771,247.209335 795.875488,245.356522 795.874146,243.525330 
	C795.863953,229.545685 795.868591,215.566055 795.868591,201.201111 
	C799.725037,201.201111 803.425659,201.201111 807.433777,201.201111 
	C807.433777,215.291183 807.308960,229.423950 807.514465,243.551910 
	C807.571594,247.477859 807.698730,251.873840 809.454224,255.169693 
	C811.160767,258.373505 814.997192,260.442841 818.289673,263.095093 
z"/>
<path fill="#EDEDED" opacity="1.000000" stroke="none" 
	d="
M344.384827,274.481750 
	C341.095154,281.786194 338.495087,289.040253 334.746582,295.642242 
	C329.346313,305.153381 319.522003,306.230865 310.921539,298.670074 
	C312.720245,295.313843 314.559204,291.882477 316.819611,287.664734 
	C317.809296,289.011932 318.362762,290.091949 319.203796,290.855042 
	C323.427094,294.686981 328.805756,294.091339 331.311035,289.039490 
	C334.401642,282.807251 337.009735,276.315887 339.442535,269.793365 
	C339.951385,268.429230 339.056122,266.320770 338.354309,264.759155 
	C329.508545,245.076202 320.579315,225.430756 311.672150,205.775406 
	C311.007965,204.309784 310.349213,202.841705 309.437683,200.819672 
	C312.836823,200.819672 315.508118,201.056580 318.118164,200.757980 
	C321.182373,200.407440 322.466736,201.838898 323.619354,204.432434 
	C330.293976,219.450394 337.130768,234.396286 343.916321,249.364914 
	C344.431793,250.501999 344.975220,251.626419 345.920837,253.641388 
	C349.061768,246.078720 351.849731,239.397293 354.612854,232.705597 
	C358.350372,223.654114 362.357117,214.698563 365.671631,205.494156 
	C367.284882,201.014023 369.646637,199.902557 374.215179,201.360687 
	C364.317963,225.651382 354.439667,249.895706 344.384827,274.481750 
z"/>
<path fill="#EAEAEA" opacity="1.000000" stroke="none" 
	d="
M278.074249,267.849792 
	C274.363068,268.720123 270.693542,269.104065 266.711212,269.520721 
	C266.711212,246.350464 266.711212,223.928177 266.711212,201.157471 
	C270.358582,201.157471 273.921234,201.157471 278.007935,201.157471 
	C278.007935,204.239868 278.007935,207.447144 278.007935,210.654419 
	C278.354492,210.773926 278.701050,210.893433 279.047638,211.012939 
	C279.809875,209.708588 280.566376,208.400818 281.335327,207.100418 
	C285.801910,199.546982 294.426086,197.089706 302.011627,201.011032 
	C305.821747,202.980682 307.434021,205.220963 304.277740,209.061905 
	C303.456635,210.061127 302.962006,211.328613 302.365784,212.386993 
	C301.861481,212.386993 301.420532,212.508926 301.310455,212.369568 
	C294.790619,204.114716 284.151398,206.033325 280.095337,217.182297 
	C278.764435,220.840546 278.284882,224.968369 278.214111,228.895844 
	C277.983124,241.714783 278.120331,254.540359 278.074249,267.849792 
z"/>
<path fill="#252525" opacity="1.000000" stroke="none" 
	d="
M562.384644,221.183441 
	C569.323730,221.434418 575.853577,221.246384 582.257996,222.053223 
	C593.929565,223.523666 601.110718,231.556671 601.437073,242.649475 
	C601.746582,253.173370 594.494751,262.073303 584.112854,262.863617 
	C576.361450,263.453674 568.529053,262.979980 560.124512,262.979980 
	C560.124512,252.759949 560.124390,242.670609 560.124695,232.581284 
	C560.124756,229.753189 559.971252,226.912018 560.208923,224.103973 
	C560.294434,223.092651 561.321472,222.161011 562.384644,221.183441 
z"/>
<path fill="#252525" opacity="1.000000" stroke="none" 
	d="
M580.298096,214.832001 
	C573.429260,214.897949 566.995728,214.897949 560.345459,214.897949 
	C560.345459,203.057053 560.345459,191.474396 560.345459,178.591888 
	C568.828125,179.297134 577.292236,179.303436 585.448792,180.890427 
	C592.503296,182.263000 596.048584,188.009888 596.730835,195.090454 
	C597.437988,202.428528 594.167603,208.023880 588.098511,211.867554 
	C585.909607,213.253876 583.203491,213.823654 580.298096,214.832001 
z"/>
<path fill="#242424" opacity="1.000000" stroke="none" 
	d="
M758.622437,254.461121 
	C754.162048,261.478668 747.909851,264.345612 740.191833,263.546875 
	C732.327820,262.733002 727.210449,258.019806 724.502197,250.752914 
	C720.903381,241.096558 720.859497,231.210480 723.707703,221.425385 
	C726.626160,211.399002 734.144348,205.855759 743.395386,206.263275 
	C752.317078,206.656296 759.281067,212.525497 761.055725,222.950699 
	C762.830078,233.374283 763.859131,244.066895 758.622437,254.461121 
z"/>
<path fill="#272727" opacity="1.000000" stroke="none" 
	d="
M199.000946,234.834778 
	C192.694626,234.834778 186.887909,234.834778 180.098358,234.834778 
	C186.814682,219.105560 193.273254,203.979965 200.143646,187.889954 
	C207.624832,203.957031 214.601273,218.940063 222.002197,234.834778 
	C213.945923,234.834778 206.723236,234.834778 199.000946,234.834778 
z"/>
<path fill="#242424" opacity="1.000000" stroke="none" 
	d="
M418.296448,263.737732 
	C408.676971,267.876190 399.517609,263.134613 395.867432,254.357880 
	C391.866119,244.736816 396.894135,233.651672 406.349945,230.171005 
	C415.192200,226.916168 426.008545,231.413025 428.369415,240.877914 
	C430.813538,250.676666 430.771271,256.556580 418.296448,263.737732 
z"/>
</svg>